<svg width="160" height="40" viewBox="0 0 160 40" fill="none" xmlns="http://www.w3.org/2000/svg">
<path d="M153 0H7C3.13401 0 0 3.13401 0 7V33C0 36.866 3.13401 40 7 40H153C156.866 40 160 36.866 160 33V7C160 3.13401 156.866 0 153 0Z" fill="black"/>
<path d="M43 14.8958V9.1042H43.9102V14.1317H46.6681V14.8958H43ZM48.0087 9.99855C47.7266 9.99855 47.4808 9.78148 47.4808 9.50362C47.4808 9.22576 47.7266 9 48.0087 9C48.3 9 48.5366 9.22576 48.5366 9.50362C48.5366 9.78148 48.3 9.99855 48.0087 9.99855ZM47.6082 14.8958V10.7019H48.4274V14.8958H47.6082ZM49.3039 14.3488L49.6952 13.7757C49.9956 14.0883 50.5781 14.3748 51.1698 14.3748C51.7887 14.3748 52.1164 14.1317 52.1164 13.7757C52.1164 13.3589 51.6157 13.22 51.0514 13.0984C50.3051 12.9334 49.4313 12.7424 49.4313 11.8394C49.4313 11.1708 50.032 10.5977 51.106 10.5977C51.8615 10.5977 52.4076 10.8582 52.7808 11.1968L52.4167 11.7438C52.1619 11.4486 51.6704 11.2315 51.1151 11.2315C50.5599 11.2315 50.2141 11.4399 50.2141 11.7786C50.2141 12.1433 50.6874 12.2648 51.2335 12.3864C51.998 12.5514 52.9082 12.7511 52.9082 13.7149C52.9082 14.4356 52.2893 15 51.1333 15C50.3961 15 49.7499 14.7829 49.3039 14.3488ZM55.1136 15C54.4218 15 54.0668 14.6266 54.0668 13.9667V11.3878H53.3387V10.7019H54.0668V9.55572H54.886V10.7019H55.778V11.3878H54.886V13.7931C54.886 14.0883 55.0316 14.3054 55.3138 14.3054C55.5049 14.3054 55.6779 14.2272 55.7598 14.1404L55.9691 14.7308C55.7962 14.8871 55.5413 15 55.1136 15ZM56.3723 12.7945C56.3723 11.5789 57.2916 10.5977 58.5749 10.5977C59.8947 10.5977 60.7139 11.5789 60.7139 12.864V13.055H57.237C57.3007 13.767 57.8468 14.3575 58.7297 14.3575C59.1939 14.3575 59.7036 14.1838 60.0313 13.8625L60.4135 14.3748C59.9766 14.7829 59.3577 15 58.6478 15C57.3371 15 56.3723 14.1143 56.3723 12.7945ZM58.5749 11.2402C57.6921 11.2402 57.2734 11.9175 57.2279 12.4906H59.9129C59.8947 11.9349 59.5033 11.2402 58.5749 11.2402ZM64.6668 14.8958V12.2127C64.6668 11.5181 64.2936 11.2923 63.7293 11.2923C63.2196 11.2923 62.7554 11.5876 62.5187 11.9001V14.8958H61.6996V10.7019H62.5187V11.2923C62.81 10.9537 63.3925 10.5977 64.0752 10.5977C65.0036 10.5977 65.486 11.0666 65.486 11.9522V14.8958H64.6668ZM70.998 15C69.6327 15 68.7771 14.0101 68.7771 12.7945C68.7771 11.5876 69.6327 10.5977 70.998 10.5977C72.3723 10.5977 73.2188 11.5876 73.2188 12.7945C73.2188 14.0101 72.3723 15 70.998 15ZM70.998 14.3054C71.8808 14.3054 72.3633 13.5933 72.3633 12.7945C72.3633 12.0043 71.8808 11.2923 70.998 11.2923C70.1242 11.2923 69.6327 12.0043 69.6327 12.7945C69.6327 13.5933 70.1242 14.3054 70.998 14.3054ZM77.1808 14.8958V12.2127C77.1808 11.5181 76.8076 11.2923 76.2433 11.2923C75.7336 11.2923 75.2694 11.5876 75.0328 11.9001V14.8958H74.2136V10.7019H75.0328V11.2923C75.324 10.9537 75.9066 10.5977 76.5892 10.5977C77.5176 10.5977 78 11.0666 78 11.9522V14.8958H77.1808Z" fill="white"/>
<path d="M46.7301 32H43.1985V21.0909H46.842C47.9109 21.0909 48.8288 21.3093 49.5959 21.7461C50.3629 22.1793 50.9506 22.8026 51.359 23.6158C51.771 24.4254 51.9769 25.3967 51.9769 26.5295C51.9769 27.6658 51.7692 28.6424 51.3537 29.4592C50.9418 30.2759 50.3452 30.9045 49.5639 31.3448C48.7827 31.7816 47.8381 32 46.7301 32ZM44.8445 30.5618H46.6396C47.4705 30.5618 48.1612 30.4055 48.7116 30.093C49.2621 29.777 49.674 29.3207 49.9474 28.7241C50.2209 28.1239 50.3576 27.3924 50.3576 26.5295C50.3576 25.6737 50.2209 24.9474 49.9474 24.3509C49.6776 23.7543 49.2745 23.3015 48.7383 22.9925C48.2021 22.6836 47.5362 22.5291 46.7408 22.5291H44.8445V30.5618ZM57.4221 32.1651C56.616 32.1651 55.9218 31.9929 55.3394 31.6484C54.7606 31.3004 54.3131 30.8121 53.9971 30.1836C53.6846 29.5515 53.5283 28.8111 53.5283 27.9624C53.5283 27.1243 53.6846 26.3857 53.9971 25.7464C54.3131 25.1072 54.7535 24.6083 55.3181 24.2496C55.8863 23.891 56.5503 23.7116 57.3103 23.7116C57.7719 23.7116 58.2194 23.788 58.6526 23.9407C59.0858 24.0934 59.4747 24.3331 59.8192 24.6598C60.1636 24.9865 60.4353 25.4109 60.6341 25.9329C60.833 26.4513 60.9324 27.0817 60.9324 27.8239V28.3885H54.4285V27.1953H59.3717C59.3717 26.7763 59.2865 26.4052 59.116 26.082C58.9456 25.7553 58.7059 25.4979 58.3969 25.3097C58.0915 25.1214 57.7329 25.0273 57.3209 25.0273C56.8735 25.0273 56.4829 25.1374 56.1491 25.3576C55.8188 25.5742 55.5631 25.8583 55.382 26.2099C55.2045 26.5579 55.1157 26.9361 55.1157 27.3445V28.2766C55.1157 28.8235 55.2116 29.2887 55.4033 29.6722C55.5986 30.0558 55.8703 30.3487 56.2183 30.5511C56.5663 30.75 56.9729 30.8494 57.4381 30.8494C57.74 30.8494 58.0152 30.8068 58.2638 30.7216C58.5123 30.6328 58.7272 30.5014 58.9083 30.3274C59.0894 30.1534 59.2279 29.9386 59.3238 29.6829L60.8312 29.9545C60.7105 30.3984 60.4939 30.7873 60.1814 31.1211C59.8724 31.4513 59.4836 31.7088 59.0148 31.8935C58.5496 32.0746 58.0187 32.1651 57.4221 32.1651ZM66.2259 32.1651C65.4197 32.1651 64.7255 31.9929 64.1431 31.6484C63.5643 31.3004 63.1168 30.8121 62.8008 30.1836C62.4883 29.5515 62.332 28.8111 62.332 27.9624C62.332 27.1243 62.4883 26.3857 62.8008 25.7464C63.1168 25.1072 63.5572 24.6083 64.1218 24.2496C64.69 23.891 65.354 23.7116 66.114 23.7116C66.5756 23.7116 67.0231 23.788 67.4563 23.9407C67.8896 24.0934 68.2784 24.3331 68.6229 24.6598C68.9673 24.9865 69.239 25.4109 69.4379 25.9329C69.6367 26.4513 69.7362 27.0817 69.7362 27.8239V28.3885H63.2322V27.1953H68.1754C68.1754 26.7763 68.0902 26.4052 67.9197 26.082C67.7493 25.7553 67.5096 25.4979 67.2006 25.3097C66.8952 25.1214 66.5366 25.0273 66.1246 25.0273C65.6772 25.0273 65.2866 25.1374 64.9528 25.3576C64.6225 25.5742 64.3668 25.8583 64.1857 26.2099C64.0082 26.5579 63.9194 26.9361 63.9194 27.3445V28.2766C63.9194 28.8235 64.0153 29.2887 64.207 29.6722C64.4023 30.0558 64.674 30.3487 65.022 30.5511C65.37 30.75 65.7766 30.8494 66.2418 30.8494C66.5437 30.8494 66.8189 30.8068 67.0675 30.7216C67.3161 30.6328 67.5309 30.5014 67.712 30.3274C67.8931 30.1534 68.0316 29.9386 68.1275 29.6829L69.6349 29.9545C69.5142 30.3984 69.2976 30.7873 68.9851 31.1211C68.6761 31.4513 68.2873 31.7088 67.8185 31.8935C67.3533 32.0746 66.8224 32.1651 66.2259 32.1651ZM71.3328 32V30.908L75.7646 25.2777V25.2031H71.4767V23.8182H77.7515V24.9794L73.4901 30.5405V30.6151H77.9007V32H71.3328ZM83.0716 32.1651C82.2654 32.1651 81.5712 31.9929 80.9888 31.6484C80.41 31.3004 79.9625 30.8121 79.6465 30.1836C79.334 29.5515 79.1777 28.8111 79.1777 27.9624C79.1777 27.1243 79.334 26.3857 79.6465 25.7464C79.9625 25.1072 80.4029 24.6083 80.9675 24.2496C81.5357 23.891 82.1998 23.7116 82.9597 23.7116C83.4213 23.7116 83.8688 23.788 84.302 23.9407C84.7353 24.0934 85.1241 24.3331 85.4686 24.6598C85.813 24.9865 86.0847 25.4109 86.2836 25.9329C86.4824 26.4513 86.5819 27.0817 86.5819 27.8239V28.3885H80.0779V27.1953H85.0211C85.0211 26.7763 84.9359 26.4052 84.7654 26.082C84.595 25.7553 84.3553 25.4979 84.0463 25.3097C83.7409 25.1214 83.3823 25.0273 82.9703 25.0273C82.5229 25.0273 82.1323 25.1374 81.7985 25.3576C81.4682 25.5742 81.2125 25.8583 81.0314 26.2099C80.8539 26.5579 80.7651 26.9361 80.7651 27.3445V28.2766C80.7651 28.8235 80.861 29.2887 81.0527 29.6722C81.248 30.0558 81.5197 30.3487 81.8677 30.5511C82.2157 30.75 82.6223 30.8494 83.0875 30.8494C83.3894 30.8494 83.6646 30.8068 83.9132 30.7216C84.1618 30.6328 84.3766 30.5014 84.5577 30.3274C84.7388 30.1534 84.8773 29.9386 84.9732 29.6829L86.4806 29.9545C86.3599 30.3984 86.1433 30.7873 85.8308 31.1211C85.5218 31.4513 85.133 31.7088 84.6642 31.8935C84.199 32.0746 83.6681 32.1651 83.0716 32.1651ZM88.349 32V23.8182H89.8884V25.1179H89.9736C90.1228 24.6776 90.3856 24.3313 90.762 24.0792C91.142 23.8235 91.5716 23.6957 92.051 23.6957C92.1505 23.6957 92.2677 23.6992 92.4026 23.7063C92.5411 23.7134 92.6494 23.7223 92.7275 23.733V25.2564C92.6636 25.2386 92.55 25.2191 92.3866 25.1978C92.2233 25.1729 92.0599 25.1605 91.8966 25.1605C91.5202 25.1605 91.1846 25.2404 90.8898 25.4002C90.5986 25.5565 90.3678 25.7749 90.1974 26.0554C90.0269 26.3324 89.9417 26.6484 89.9417 27.0036V32H88.349Z" fill="white"/>
<path d="M34.0005 15.6816H28.5947V18.8445H34.0005V15.6816Z" fill="#40AB5D"/>
<path d="M34.0005 20.0664H28.5947V23.2292H34.0005V20.0664Z" fill="url(#paint0_linear_312_13345)"/>
<path d="M34.0005 24.4512H28.5947V27.614H34.0005V24.4512Z" fill="url(#paint1_linear_312_13345)"/>
<path d="M14.4058 28.8359H9V31.9988H14.4058V28.8359Z" fill="url(#paint2_linear_312_13345)"/>
<path d="M20.9341 28.8359H15.5283V31.9988H20.9341V28.8359Z" fill="url(#paint3_linear_312_13345)"/>
<path d="M27.4732 28.8359H22.0674V31.9988H27.4732V28.8359Z" fill="url(#paint4_linear_312_13345)"/>
<path d="M34.0005 28.8359H28.5947V31.9988H34.0005V28.8359Z" fill="url(#paint5_linear_312_13345)"/>
<path d="M27.4732 24.4512H22.0674V27.614H27.4732V24.4512Z" fill="url(#paint6_linear_312_13345)"/>
<path d="M20.9341 24.4512H15.5283V27.614H20.9341V24.4512Z" fill="url(#paint7_linear_312_13345)"/>
<path d="M20.9341 20.0664H15.5283V23.2292H20.9341V20.0664Z" fill="url(#paint8_linear_312_13345)"/>
<defs>
<linearGradient id="paint0_linear_312_13345" x1="31.3241" y1="23.2566" x2="31.2733" y2="20.02" gradientUnits="userSpaceOnUse">
<stop stop-color="#358C7B"/>
<stop offset="0.5256" stop-color="#33A65E"/>
</linearGradient>
<linearGradient id="paint1_linear_312_13345" x1="28.5153" y1="27.4516" x2="34.0824" y2="24.615" gradientUnits="userSpaceOnUse">
<stop stop-color="#222B90"/>
<stop offset="1" stop-color="#367B99"/>
</linearGradient>
<linearGradient id="paint2_linear_312_13345" x1="9.00099" y1="30.4186" x2="14.4023" y2="30.4186" gradientUnits="userSpaceOnUse">
<stop stop-color="#FF9900"/>
<stop offset="1" stop-color="#FF8000"/>
</linearGradient>
<linearGradient id="paint3_linear_312_13345" x1="15.5343" y1="30.4186" x2="20.9356" y2="30.4186" gradientUnits="userSpaceOnUse">
<stop stop-color="#FF8000"/>
<stop offset="1" stop-color="#CC1953"/>
</linearGradient>
<linearGradient id="paint4_linear_312_13345" x1="22.0658" y1="30.4186" x2="27.4671" y2="30.4186" gradientUnits="userSpaceOnUse">
<stop stop-color="#CC1953"/>
<stop offset="1" stop-color="#241284"/>
</linearGradient>
<linearGradient id="paint5_linear_312_13345" x1="28.5918" y1="30.4186" x2="33.9931" y2="30.4186" gradientUnits="userSpaceOnUse">
<stop stop-color="#222B90"/>
<stop offset="1" stop-color="#3559A6"/>
</linearGradient>
<linearGradient id="paint6_linear_312_13345" x1="21.8526" y1="26.8853" x2="27.6803" y2="25.1812" gradientUnits="userSpaceOnUse">
<stop stop-color="#CC1953"/>
<stop offset="1" stop-color="#241284"/>
</linearGradient>
<linearGradient id="paint7_linear_312_13345" x1="15.3421" y1="24.9804" x2="21.1279" y2="27.0862" gradientUnits="userSpaceOnUse">
<stop offset="0.00266984" stop-color="#FFCC00"/>
<stop offset="0.9999" stop-color="#CE1938"/>
</linearGradient>
<linearGradient id="paint8_linear_312_13345" x1="15.9883" y1="19.5749" x2="20.4816" y2="23.7211" gradientUnits="userSpaceOnUse">
<stop offset="0.00266984" stop-color="#FFD100"/>
<stop offset="1" stop-color="#FD5A22"/>
</linearGradient>
</defs>
</svg>
