<svg width="63" height="63" viewBox="0 0 63 63" fill="none" xmlns="http://www.w3.org/2000/svg">
<path d="M22.5207 12.1577C22.5207 11.7649 22.5752 10.9168 22.6843 9.61867C22.8016 8.31782 23.2925 6.95697 24.1734 5.52794C25.046 4.10437 26.4614 2.82533 28.4304 1.69356C30.3913 0.567248 33.2248 0 36.9228 0H47.3405V11.3531H39.7127C38.9573 11.3531 38.2537 11.6368 37.6182 12.1958C36.9883 12.7549 36.6637 13.2867 36.6637 13.7803V20.8436H47.3378C47.226 22.2263 47.1033 23.5708 46.9615 24.8689L46.5388 28.2997C46.3697 29.4587 46.1979 30.5332 46.0288 31.5232H36.5874V63H22.5207V31.5205H15.6592V20.8436H22.5207V12.1577Z" fill="black"/>
</svg>
