<svg width="65" height="65" viewBox="0 0 65 65" fill="none" xmlns="http://www.w3.org/2000/svg">
<path d="M1 21C1 10.5066 9.50659 2 20 2H45C55.4934 2 64 10.5066 64 21V43C64 53.4934 55.4934 62 45 62H20C9.50659 62 1 53.4934 1 43V21Z" fill="black"/>
<path d="M18 32.5C18 25.0442 24.0442 19 31.5 19H32.5C39.9558 19 46 25.0442 46 32.5V32.5C46 39.9558 39.9558 46 32.5 46H31.5C24.0442 46 18 39.9558 18 32.5V32.5Z" fill="white"/>
<path d="M19.2773 0.183594C8.75 0.183594 0.183594 8.75 0.183594 19.2773V45.7227C0.183594 56.25 8.75 64.8164 19.2773 64.8164H45.7227C56.25 64.8164 64.8164 56.25 64.8164 45.7227V19.2773C64.8164 8.75 56.25 0.183594 45.7227 0.183594H19.2773ZM19.2773 3.12109H45.7227C54.6602 3.12109 61.8789 10.3398 61.8789 19.2773V45.7227C61.8789 54.6602 54.6602 61.8789 45.7227 61.8789H19.2773C10.3398 61.8789 3.12109 54.6602 3.12109 45.7227V19.2773C3.12109 10.3398 10.3398 3.12109 19.2773 3.12109ZM50.1289 11.9336C48.5039 11.9336 47.1914 13.25 47.1914 14.8711C47.1914 16.4961 48.5039 17.8086 50.1289 17.8086C51.75 17.8086 53.0664 16.4961 53.0664 14.8711C53.0664 13.25 51.75 11.9336 50.1289 11.9336ZM32.5 16.3398C23.5938 16.3398 16.3398 23.5938 16.3398 32.5C16.3398 41.4062 23.5938 48.6602 32.5 48.6602C41.4062 48.6602 48.6602 41.4062 48.6602 32.5C48.6602 23.5938 41.4062 16.3398 32.5 16.3398ZM32.5 19.2773C39.8203 19.2773 45.7227 25.1797 45.7227 32.5C45.7227 39.8203 39.8203 45.7227 32.5 45.7227C25.1797 45.7227 19.2773 39.8203 19.2773 32.5C19.2773 25.1797 25.1797 19.2773 32.5 19.2773Z" fill="white"/>
</svg>
