<svg width="64" height="64" viewBox="0 0 64 64" fill="none" xmlns="http://www.w3.org/2000/svg">
<path d="M8 29C8 17.9543 16.9543 9 28 9H38C49.0457 9 58 17.9543 58 29V34C58 45.0457 49.0457 54 38 54H28C16.9543 54 8 45.0457 8 34V29Z" fill="black"/>
<path d="M32 0C14.3355 0 0 14.3355 0 32C0 49.6645 14.3355 64 32 64C49.6645 64 64 49.6645 64 32C64 14.3355 49.6645 0 32 0ZM44.9935 47.0839C44.4516 47.0839 44.1161 46.9161 43.6129 46.6194C35.5613 41.7677 26.1935 41.5613 16.9419 43.4581C16.4387 43.5871 15.7806 43.7935 15.4065 43.7935C14.1548 43.7935 13.3677 42.8 13.3677 41.7548C13.3677 40.4258 14.1548 39.7935 15.1226 39.5871C25.6903 37.2516 36.4903 37.4581 45.7032 42.9677C46.4903 43.471 46.9548 43.9226 46.9548 45.0968C46.9548 46.271 46.0387 47.0839 44.9935 47.0839V47.0839ZM48.4645 38.6194C47.7935 38.6194 47.3419 38.3226 46.8774 38.0774C38.8129 33.3032 26.7871 31.3806 16.0903 34.2839C15.471 34.4516 15.1355 34.6194 14.5548 34.6194C13.1742 34.6194 12.0516 33.4968 12.0516 32.1161C12.0516 30.7355 12.7226 29.8194 14.0516 29.4452C17.6387 28.4387 21.3032 27.6903 26.671 27.6903C35.0452 27.6903 43.1355 29.7677 49.5097 33.5613C50.5548 34.1806 50.9677 34.9806 50.9677 36.1032C50.9548 37.4968 49.871 38.6194 48.4645 38.6194V38.6194ZM52.4645 28.7871C51.7935 28.7871 51.3806 28.6194 50.8 28.2839C41.6129 22.8 25.1871 21.4839 14.5548 24.4516C14.0903 24.5806 13.5097 24.7871 12.8903 24.7871C11.1871 24.7871 9.88387 23.4581 9.88387 21.7419C9.88387 19.9871 10.9677 18.9935 12.129 18.6581C16.671 17.329 21.7548 16.6968 27.2903 16.6968C36.7097 16.6968 46.5806 18.6581 53.7935 22.8645C54.8 23.4452 55.4581 24.2452 55.4581 25.7806C55.4581 27.5355 54.0387 28.7871 52.4645 28.7871V28.7871Z" fill="white"/>
</svg>
