<svg width="60" height="60" viewBox="0 0 60 60" fill="none" xmlns="http://www.w3.org/2000/svg">
<path d="M54.0848 10.0776C52.0473 11.0401 48.5798 12.8451 46.8373 13.1901C46.7698 13.2076 46.7148 13.2301 46.6498 13.2476C44.6173 11.2426 41.8323 10.0001 38.7498 10.0001C32.5373 10.0001 27.4998 15.0376 27.4998 21.2501C27.4998 21.5776 27.4723 22.1801 27.4998 22.5001C19.4548 22.5001 13.5798 18.3026 9.18233 12.9076C8.59483 12.1826 7.96983 12.5601 7.83983 13.0751C7.54733 14.2401 7.44733 16.1876 7.44733 17.5776C7.44733 21.0801 10.1848 24.5201 14.4473 26.6526C13.6623 26.8551 12.7973 27.0001 11.8973 27.0001C10.8373 27.0001 9.61733 26.7226 8.54983 26.1626C8.15483 25.9551 7.30233 26.0126 7.55483 27.0226C8.56733 31.0701 13.1873 33.9126 17.3148 34.7401C16.3773 35.2926 14.3773 35.1801 13.4573 35.1801C13.1173 35.1801 11.9348 35.1001 11.1698 35.0051C10.4723 34.9201 9.39983 35.1001 10.2973 36.4601C12.2248 39.3776 16.5848 41.2101 20.3373 41.2801C16.8823 43.9901 11.2323 44.9801 5.81983 44.9801C4.72483 44.9551 4.77983 46.2026 5.66233 46.6651C9.65483 48.7601 16.1948 50.0001 20.8673 50.0001C39.4423 50.0001 49.9998 35.8426 49.9998 22.4976C49.9998 22.2826 49.9948 21.8326 49.9873 21.3801C49.9873 21.3351 49.9998 21.2926 49.9998 21.2476C49.9998 21.1801 49.9798 21.1151 49.9798 21.0476C49.9723 20.7076 49.9648 20.3901 49.9573 20.2251C51.4298 19.1626 53.6848 17.3176 54.8248 15.9051C55.2123 15.4251 54.8998 14.8426 54.3723 15.0251C53.0148 15.4976 50.6673 16.4126 49.1973 16.5876C52.1398 14.6401 53.5948 12.9451 54.8448 11.0626C55.2723 10.4201 54.7373 9.76759 54.0848 10.0776Z" fill="black"/>
</svg>
