<svg width="160" height="40" viewBox="0 0 160 40" fill="none" xmlns="http://www.w3.org/2000/svg">
<path d="M153 0H7C3.13401 0 0 3.13401 0 7V33C0 36.866 3.13401 40 7 40H153C156.866 40 160 36.866 160 33V7C160 3.13401 156.866 0 153 0Z" fill="black"/>
<path d="M43 14.8958V9.1042H43.9102V14.1317H46.6681V14.8958H43ZM48.0087 9.99855C47.7266 9.99855 47.4808 9.78148 47.4808 9.50362C47.4808 9.22576 47.7266 9 48.0087 9C48.3 9 48.5366 9.22576 48.5366 9.50362C48.5366 9.78148 48.3 9.99855 48.0087 9.99855ZM47.6082 14.8958V10.7019H48.4274V14.8958H47.6082ZM49.3039 14.3488L49.6952 13.7757C49.9956 14.0883 50.5781 14.3748 51.1698 14.3748C51.7887 14.3748 52.1164 14.1317 52.1164 13.7757C52.1164 13.3589 51.6157 13.22 51.0514 13.0984C50.3051 12.9334 49.4313 12.7424 49.4313 11.8394C49.4313 11.1708 50.032 10.5977 51.106 10.5977C51.8615 10.5977 52.4076 10.8582 52.7808 11.1968L52.4167 11.7438C52.1619 11.4486 51.6704 11.2315 51.1151 11.2315C50.5599 11.2315 50.2141 11.4399 50.2141 11.7786C50.2141 12.1433 50.6874 12.2648 51.2335 12.3864C51.998 12.5514 52.9082 12.7511 52.9082 13.7149C52.9082 14.4356 52.2893 15 51.1333 15C50.3961 15 49.7499 14.7829 49.3039 14.3488ZM55.1136 15C54.4218 15 54.0668 14.6266 54.0668 13.9667V11.3878H53.3387V10.7019H54.0668V9.55572H54.886V10.7019H55.778V11.3878H54.886V13.7931C54.886 14.0883 55.0316 14.3054 55.3138 14.3054C55.5049 14.3054 55.6779 14.2272 55.7598 14.1404L55.9691 14.7308C55.7962 14.8871 55.5413 15 55.1136 15ZM56.3723 12.7945C56.3723 11.5789 57.2916 10.5977 58.5749 10.5977C59.8947 10.5977 60.7139 11.5789 60.7139 12.864V13.055H57.237C57.3007 13.767 57.8468 14.3575 58.7297 14.3575C59.1939 14.3575 59.7036 14.1838 60.0313 13.8625L60.4135 14.3748C59.9766 14.7829 59.3577 15 58.6478 15C57.3371 15 56.3723 14.1143 56.3723 12.7945ZM58.5749 11.2402C57.6921 11.2402 57.2734 11.9175 57.2279 12.4906H59.9129C59.8947 11.9349 59.5033 11.2402 58.5749 11.2402ZM64.6668 14.8958V12.2127C64.6668 11.5181 64.2936 11.2923 63.7293 11.2923C63.2196 11.2923 62.7554 11.5876 62.5187 11.9001V14.8958H61.6996V10.7019H62.5187V11.2923C62.81 10.9537 63.3925 10.5977 64.0752 10.5977C65.0036 10.5977 65.486 11.0666 65.486 11.9522V14.8958H64.6668ZM70.998 15C69.6327 15 68.7771 14.0101 68.7771 12.7945C68.7771 11.5876 69.6327 10.5977 70.998 10.5977C72.3723 10.5977 73.2188 11.5876 73.2188 12.7945C73.2188 14.0101 72.3723 15 70.998 15ZM70.998 14.3054C71.8808 14.3054 72.3633 13.5933 72.3633 12.7945C72.3633 12.0043 71.8808 11.2923 70.998 11.2923C70.1242 11.2923 69.6327 12.0043 69.6327 12.7945C69.6327 13.5933 70.1242 14.3054 70.998 14.3054ZM77.1808 14.8958V12.2127C77.1808 11.5181 76.8076 11.2923 76.2433 11.2923C75.7336 11.2923 75.2694 11.5876 75.0328 11.9001V14.8958H74.2136V10.7019H75.0328V11.2923C75.324 10.9537 75.9066 10.5977 76.5892 10.5977C77.5176 10.5977 78 11.0666 78 11.9522V14.8958H77.1808Z" fill="white"/>
<path d="M22 34C29.1797 34 35 28.1797 35 21C35 13.8203 29.1797 8 22 8C14.8203 8 9 13.8203 9 21C9 28.1797 14.8203 34 22 34Z" fill="#FF0000"/>
<path d="M21.9996 14.795C25.4121 14.795 28.2041 17.5723 28.2041 20.9996C28.2041 24.4268 25.4268 27.2041 21.9996 27.2041C18.5723 27.2041 15.795 24.4268 15.795 20.9996C15.795 17.5723 18.5871 14.795 21.9996 14.795ZM21.9996 14.2041C18.2473 14.2041 15.2041 17.2473 15.2041 20.9996C15.2041 24.7518 18.2473 27.795 21.9996 27.795C25.7518 27.795 28.795 24.7518 28.795 20.9996C28.795 17.2473 25.7518 14.2041 21.9996 14.2041Z" fill="white"/>
<path d="M19.6367 24.398L25.3981 20.8525L19.6367 17.6025V24.398Z" fill="white"/>
<path d="M43.3569 20.0909H45.2266L48.0763 25.0501H48.1935L51.0433 20.0909H52.913L48.9553 26.7173V31H47.3146V26.7173L43.3569 20.0909ZM56.4379 31.1651C55.6709 31.1651 55.0015 30.9893 54.4298 30.6378C53.858 30.2862 53.4142 29.7944 53.0981 29.1623C52.782 28.5302 52.624 27.7915 52.624 26.9464C52.624 26.0977 52.782 25.3555 53.0981 24.7198C53.4142 24.0842 53.858 23.5906 54.4298 23.239C55.0015 22.8874 55.6709 22.7116 56.4379 22.7116C57.205 22.7116 57.8744 22.8874 58.4461 23.239C59.0178 23.5906 59.4617 24.0842 59.7778 24.7198C60.0938 25.3555 60.2519 26.0977 60.2519 26.9464C60.2519 27.7915 60.0938 28.5302 59.7778 29.1623C59.4617 29.7944 59.0178 30.2862 58.4461 30.6378C57.8744 30.9893 57.205 31.1651 56.4379 31.1651ZM56.4433 29.8281C56.9404 29.8281 57.3524 29.6967 57.6791 29.4339C58.0058 29.1712 58.2472 28.8214 58.4035 28.3846C58.5633 27.9478 58.6432 27.4666 58.6432 26.9411C58.6432 26.419 58.5633 25.9396 58.4035 25.5028C58.2472 25.0625 58.0058 24.7092 57.6791 24.4428C57.3524 24.1765 56.9404 24.0433 56.4433 24.0433C55.9426 24.0433 55.5271 24.1765 55.1968 24.4428C54.8701 24.7092 54.6269 25.0625 54.4671 25.5028C54.3108 25.9396 54.2327 26.419 54.2327 26.9411C54.2327 27.4666 54.3108 27.9478 54.4671 28.3846C54.6269 28.8214 54.8701 29.1712 55.1968 29.4339C55.5271 29.6967 55.9426 29.8281 56.4433 29.8281ZM67.2125 27.6069V22.8182H68.8105V31H67.2445V29.5831H67.1593C66.9711 30.0199 66.6692 30.3839 66.2537 30.6751C65.8418 30.9627 65.3287 31.1065 64.7143 31.1065C64.1887 31.1065 63.7235 30.9911 63.3187 30.7603C62.9174 30.5259 62.6014 30.1797 62.3706 29.7216C62.1433 29.2635 62.0297 28.6971 62.0297 28.0224V22.8182H63.6223V27.8306C63.6223 28.3881 63.7768 28.832 64.0858 29.1623C64.3947 29.4925 64.796 29.6577 65.2896 29.6577C65.5879 29.6577 65.8844 29.5831 66.1792 29.4339C66.4775 29.2848 66.7243 29.0593 66.9196 28.7575C67.1184 28.4556 67.2161 28.0721 67.2125 27.6069ZM74.7698 22.8182V24.0966H70.3007V22.8182H74.7698ZM71.4992 20.858H73.0919V28.5977C73.0919 28.9066 73.1381 29.1392 73.2304 29.2955C73.3227 29.4482 73.4417 29.5529 73.5873 29.6097C73.7364 29.663 73.898 29.6896 74.072 29.6896C74.1998 29.6896 74.3117 29.6808 74.4076 29.663C74.5035 29.6452 74.578 29.631 74.6313 29.6204L74.9189 30.9361C74.8266 30.9716 74.6952 31.0071 74.5248 31.0426C74.3543 31.0817 74.1412 31.103 73.8856 31.1065C73.4665 31.1136 73.0759 31.0391 72.7137 30.8828C72.3515 30.7266 72.0585 30.4851 71.8348 30.1584C71.6111 29.8317 71.4992 29.4215 71.4992 28.9279V20.858ZM81.7145 27.6069V22.8182H83.3125V31H81.7464V29.5831H81.6612C81.473 30.0199 81.1712 30.3839 80.7557 30.6751C80.3438 30.9627 79.8306 31.1065 79.2163 31.1065C78.6907 31.1065 78.2255 30.9911 77.8207 30.7603C77.4194 30.5259 77.1033 30.1797 76.8725 29.7216C76.6452 29.2635 76.5316 28.6971 76.5316 28.0224V22.8182H78.1243V27.8306C78.1243 28.3881 78.2788 28.832 78.5877 29.1623C78.8967 29.4925 79.2979 29.6577 79.7915 29.6577C80.0898 29.6577 80.3864 29.5831 80.6811 29.4339C80.9794 29.2848 81.2262 29.0593 81.4215 28.7575C81.6204 28.4556 81.718 28.0721 81.7145 27.6069ZM85.5803 31V20.0909H87.173V24.1445H87.2689C87.3612 23.9741 87.4944 23.777 87.6684 23.5533C87.8424 23.3295 88.0839 23.1342 88.3928 22.9673C88.7018 22.7969 89.1102 22.7116 89.618 22.7116C90.2785 22.7116 90.868 22.8786 91.3865 23.2124C91.9049 23.5462 92.3115 24.0273 92.6063 24.6559C92.9046 25.2844 93.0537 26.0408 93.0537 26.9251C93.0537 27.8093 92.9063 28.5675 92.6116 29.1996C92.3169 29.8281 91.912 30.3129 91.3971 30.6538C90.8822 30.9911 90.2945 31.1598 89.634 31.1598C89.1368 31.1598 88.7302 31.0763 88.4142 30.9094C88.1017 30.7425 87.8566 30.5472 87.6791 30.3235C87.5015 30.0998 87.3648 29.9009 87.2689 29.7269H87.1357V31H85.5803ZM87.1411 26.9091C87.1411 27.4844 87.2245 27.9886 87.3914 28.4219C87.5583 28.8551 87.7998 29.1942 88.1159 29.4393C88.4319 29.6808 88.819 29.8015 89.2771 29.8015C89.7529 29.8015 90.1507 29.6754 90.4703 29.4233C90.7899 29.1676 91.0313 28.8214 91.1947 28.3846C91.3616 27.9478 91.445 27.456 91.445 26.9091C91.445 26.3693 91.3634 25.8846 91.2 25.4549C91.0402 25.0252 90.7987 24.6861 90.4756 24.4375C90.156 24.1889 89.7565 24.0646 89.2771 24.0646C88.8154 24.0646 88.4248 24.1836 88.1052 24.4215C87.7892 24.6594 87.5494 24.9915 87.3861 25.4176C87.2227 25.8437 87.1411 26.3409 87.1411 26.9091ZM98.3684 31.1651C97.5623 31.1651 96.8681 30.9929 96.2857 30.6484C95.7069 30.3004 95.2594 29.8121 94.9434 29.1836C94.6309 28.5515 94.4746 27.8111 94.4746 26.9624C94.4746 26.1243 94.6309 25.3857 94.9434 24.7464C95.2594 24.1072 95.6998 23.6083 96.2644 23.2496C96.8326 22.891 97.4966 22.7116 98.2566 22.7116C98.7182 22.7116 99.1657 22.788 99.5989 22.9407C100.032 23.0934 100.421 23.3331 100.765 23.6598C101.11 23.9865 101.382 24.4109 101.58 24.9329C101.779 25.4513 101.879 26.0817 101.879 26.8239V27.3885H95.3748V26.1953H100.318C100.318 25.7763 100.233 25.4052 100.062 25.082C99.8919 24.7553 99.6522 24.4979 99.3432 24.3097C99.0378 24.1214 98.6792 24.0273 98.2672 24.0273C97.8198 24.0273 97.4292 24.1374 97.0953 24.3576C96.7651 24.5742 96.5094 24.8583 96.3283 25.2099C96.1507 25.5579 96.062 25.9361 96.062 26.3445V27.2766C96.062 27.8235 96.1578 28.2887 96.3496 28.6722C96.5449 29.0558 96.8166 29.3487 97.1646 29.5511C97.5126 29.75 97.9192 29.8494 98.3844 29.8494C98.6863 29.8494 98.9615 29.8068 99.21 29.7216C99.4586 29.6328 99.6735 29.5014 99.8546 29.3274C100.036 29.1534 100.174 28.9386 100.27 28.6829L101.778 28.9545C101.657 29.3984 101.44 29.7873 101.128 30.1211C100.819 30.4513 100.43 30.7088 99.9611 30.8935C99.4959 31.0746 98.965 31.1651 98.3684 31.1651ZM107.743 20.0909H109.741L113.214 28.571H113.342L116.815 20.0909H118.812V31H117.246V23.1058H117.145L113.928 30.984H112.628L109.411 23.1005H109.309V31H107.743V20.0909ZM126.26 27.6069V22.8182H127.858V31H126.292V29.5831H126.207C126.019 30.0199 125.717 30.3839 125.302 30.6751C124.89 30.9627 124.377 31.1065 123.762 31.1065C123.237 31.1065 122.771 30.9911 122.367 30.7603C121.965 30.5259 121.649 30.1797 121.418 29.7216C121.191 29.2635 121.078 28.6971 121.078 28.0224V22.8182H122.67V27.8306C122.67 28.3881 122.825 28.832 123.134 29.1623C123.443 29.4925 123.844 29.6577 124.337 29.6577C124.636 29.6577 124.932 29.5831 125.227 29.4339C125.525 29.2848 125.772 29.0593 125.967 28.7575C126.166 28.4556 126.264 28.0721 126.26 27.6069ZM136.129 24.8157L134.686 25.0714C134.626 24.8867 134.53 24.7109 134.398 24.544C134.27 24.3771 134.096 24.2404 133.876 24.1339C133.656 24.0273 133.381 23.9741 133.051 23.9741C132.6 23.9741 132.223 24.0753 131.921 24.2777C131.619 24.4766 131.469 24.734 131.469 25.0501C131.469 25.3235 131.57 25.5437 131.772 25.7106C131.975 25.8775 132.301 26.0142 132.752 26.1207L134.052 26.419C134.805 26.593 135.366 26.8612 135.735 27.2234C136.105 27.5856 136.289 28.0561 136.289 28.6349C136.289 29.125 136.147 29.5618 135.863 29.9453C135.583 30.3253 135.19 30.6236 134.686 30.8402C134.185 31.0568 133.605 31.1651 132.944 31.1651C132.028 31.1651 131.28 30.9698 130.702 30.5792C130.123 30.185 129.768 29.6257 129.636 28.9013L131.176 28.6669C131.271 29.0682 131.469 29.3718 131.767 29.5778C132.065 29.7802 132.454 29.8814 132.933 29.8814C133.455 29.8814 133.873 29.7731 134.185 29.5565C134.498 29.3363 134.654 29.0682 134.654 28.7521C134.654 28.4964 134.558 28.2816 134.366 28.1076C134.178 27.9336 133.889 27.8022 133.498 27.7134L132.113 27.4098C131.35 27.2358 130.785 26.9588 130.419 26.5788C130.057 26.1989 129.876 25.7177 129.876 25.1353C129.876 24.6523 130.011 24.2298 130.281 23.8675C130.551 23.5053 130.923 23.223 131.399 23.0206C131.875 22.8146 132.42 22.7116 133.035 22.7116C133.919 22.7116 134.615 22.9034 135.123 23.2869C135.631 23.6669 135.966 24.1765 136.129 24.8157ZM138.04 31V22.8182H139.633V31H138.04ZM138.845 21.5558C138.568 21.5558 138.33 21.4634 138.131 21.2788C137.936 21.0906 137.838 20.8668 137.838 20.6076C137.838 20.3448 137.936 20.1211 138.131 19.9364C138.33 19.7482 138.568 19.6541 138.845 19.6541C139.122 19.6541 139.358 19.7482 139.553 19.9364C139.752 20.1211 139.851 20.3448 139.851 20.6076C139.851 20.8668 139.752 21.0906 139.553 21.2788C139.358 21.4634 139.122 21.5558 138.845 21.5558ZM145.222 31.1651C144.43 31.1651 143.748 30.9858 143.177 30.6271C142.608 30.2649 142.172 29.766 141.866 29.1303C141.561 28.4947 141.408 27.7667 141.408 26.9464C141.408 26.1154 141.564 25.3821 141.877 24.7464C142.189 24.1072 142.63 23.6083 143.198 23.2496C143.766 22.891 144.436 22.7116 145.206 22.7116C145.828 22.7116 146.382 22.8271 146.868 23.0579C147.355 23.2852 147.747 23.6048 148.045 24.0167C148.347 24.4286 148.526 24.9098 148.583 25.4602H147.033C146.948 25.0767 146.753 24.7464 146.447 24.4695C146.145 24.1925 145.741 24.054 145.233 24.054C144.789 24.054 144.4 24.1712 144.066 24.4055C143.736 24.6364 143.479 24.9666 143.294 25.3963C143.109 25.8224 143.017 26.3267 143.017 26.9091C143.017 27.5057 143.107 28.0206 143.289 28.4538C143.47 28.8871 143.725 29.2227 144.056 29.4606C144.389 29.6985 144.782 29.8175 145.233 29.8175C145.535 29.8175 145.808 29.7624 146.053 29.6523C146.302 29.5387 146.509 29.3771 146.676 29.1676C146.847 28.9581 146.966 28.706 147.033 28.4112H148.583C148.526 28.9403 148.354 29.4126 148.067 29.8281C147.779 30.2436 147.394 30.5703 146.911 30.8082C146.431 31.0462 145.868 31.1651 145.222 31.1651Z" fill="white"/>
</svg>
